<?xml version="1.0" encoding="UTF-8" standalone="no"?>
<!-- Created with Inkscape (http://www.inkscape.org/) -->

<svg
   width="15.172236mm"
   height="15.815702mm"
   viewBox="0 0 15.172236 15.815702"
   version="1.1"
   id="svg1"
   xmlns="http://www.w3.org/2000/svg"
   xmlns:svg="http://www.w3.org/2000/svg">
  <defs
     id="defs1" />
  <g
     id="layer1"
     transform="translate(-55.37769,-91.009912)">
    <path
       style="font-weight:500;font-size:16.9333px;line-height:1.25;font-family:'Noto Sans CJK JP';-inkscape-font-specification:'Noto Sans CJK JP Medium';stroke-width:0.264583;fill:#fa3f86;fill-opacity:1"
       d="m 59.086082,104.33642 h 7.907851 v 0.89746 h -7.907851 z m 0,-0.98213 v -0.8636 h 7.907851 v 0.8636 z m -1.54093,-1.91347 v 5.38479 h 1.54093 v -0.52493 h 7.907851 v 0.508 h 1.608664 v -5.36786 z M 55.37769,99.612028 v 1.151462 h 15.172236 v -1.151462 h -6.841053 v -0.829731 h 5.638789 V 97.749365 H 63.708873 V 96.9535 h 4.809057 v -1.828796 h 2.031996 V 93.973239 H 68.51793 v -1.811863 h -4.809057 v -1.151464 h -1.625597 v 1.151464 h -4.910657 v 0.999065 h 4.910657 v 0.812798 h -6.688653 v 1.151465 h 6.688653 v 0.846665 H 56.96942 V 96.9535 h 5.113856 v 0.795865 h -5.537189 v 1.032932 h 5.537189 v 0.829731 z m 8.331183,-6.451587 H 66.9262 v 0.812798 h -3.217327 z m 0,2.810928 V 95.124704 H 66.9262 v 0.846665 z"
       id="text1"
       aria-label="書" />
  </g>
</svg>
