<svg xmlns="http://www.w3.org/2000/svg" viewBox="0 0 16 16">
  <path
    d="
      M 0,2
      a 2 2 0 0 1 2,-2
      h 9
      a 2 2 0 0 1 2,2
      h -1
      a 1 1 0 0 0 -1,-1
      h -9
      a 1 1 0 0 0 -1,1
      v 9
      a 1 1 0 0 0 1,1
      v 1
      a 2 2 0 0 1 -2,-2
      Z

      M 3,5
      a 2 2 0 0 1 2,-2
      h 9
      a 2 2 0 0 1 2,2
      v 9
      a 2 2 0 0 1 -2,2
      h -9
      a 2 2 0 0 1 -2,-2
      m 1,0
      a 1 1 0 0 0 1,1
      h 9
      a 1 1 0 0 0 1,-1
      v -9
      a 1 1 0 0 0 -1,-1
      h -9
      a 1 1 0 0 0 -1,1
      Z
    "
  />
</svg>
