<svg xmlns="http://www.w3.org/2000/svg" viewBox="0 0 16 16">
  <path
    d="
      M 0,2
      h 5.5
      a 2 2 0 0 1 2,-2
      h 1
      a 2 2 0 0 1 2,2
      h 5.5
      v 1
      h -2
      v 11
      a 2 2 0 0 1 -2,2
      h -8
      a 2 2 0 0 1 -2,-2
      v -11
      h -2
      Z

      M 7.5,1
      a 1 1 0 0 0 -1,1
      h 3
      a 1 1 0 0 0 -1,-1
      Z

      M 3,3
      v 11
      a 1 1 0 0 0 1,1
      h 8
      a 1 1 0 0 0 1,-1
      v -11
      Z

      M 5,5
      v 8
      h 1
      v -8
      Z

      m 2.5,0
      v 8
      h 1
      v -8
      Z

      m 2.5,0
      v 8
      h 1
      v -8
      Z
    "
  />
</svg>
