<svg xmlns="http://www.w3.org/2000/svg" viewBox="0 0 16 16">
  <path
    d="
      M 0,4
      a 2 2 0 0 1 2,-2
      h 7
      l -1,1
      h -6
      a 1 1 0 0 0 -1,1
      v 10
      a 1 1 0 0 0 1,1
      h 10
      a 1 1 0 0 0 1,-1
      v -6
      l 1,-1
      v 7
      a 2 2 0 0 1 -2,2
      h -10
      a 2 2 0 0 1 -2,-2
      Z

      M 13.5828,0.2929
      a 1 1 0 0 1 1.4142,0
      l 0.7071,0.7071
      a 1 1 0 0 1 0,1.4142
      l -9,9
      l -3.1213,1
      l 1,-3.1213

      m 0.7071,0.7071
      l 0,0.7071
      l 0.7071,0
      l 7.4142,-7.4142
      l -0.7071,-0.7071

      m 0.7071,-0.7071
      l 0.7071,0.7071
      l 0.7071,-0.7071
      l -0.7071,-0.7071
      Z
    "
  />
</svg>
