<?xml version="1.0" encoding="UTF-8" standalone="no"?>
<!-- Created with Inkscape (http://www.inkscape.org/) -->

<svg
   width="57.343884"
   height="59.775867"
   viewBox="0 0 15.172235 15.815698"
   version="1.1"
   id="svg1"
   xmlns="http://www.w3.org/2000/svg"
   xmlns:svg="http://www.w3.org/2000/svg">
  <path
     fill="#fa3f86"
     d="m 3.708392,13.326508 h 7.907851 v 0.89746 H 3.708392 Z m 0,-0.98213 v -0.8636 h 7.907851 v 0.8636 z m -1.54093,-1.91347 v 5.38479 h 1.54093 v -0.52493 h 7.907851 v 0.508 h 1.608664 v -5.36786 z M 0,8.602116 V 9.753578 H 15.172236 V 8.602116 H 8.331183 V 7.772385 h 5.638789 V 6.739453 H 8.331183 V 5.943588 H 13.14024 V 4.114792 h 2.031996 V 2.963327 H 13.14024 V 1.151464 H 8.331183 V 0 H 6.705586 V 1.151464 H 1.794929 V 2.150529 H 6.705586 V 2.963327 H 0.016933 V 4.114792 H 6.705586 V 4.961457 H 1.59173 V 5.943588 H 6.705586 V 6.739453 H 1.168397 V 7.772385 H 6.705586 V 8.602116 Z M 8.331183,2.150529 H 11.54851 V 2.963327 H 8.331183 Z m 0,2.810928 V 4.114792 h 3.217327 v 0.846665 z"
     aria-label="書"
  />
</svg>
