<?xml version="1.0" encoding="utf-8"?><svg xmlns="http://www.w3.org/2000/svg"><symbol id="arrow-left" viewBox="0 0 16 14"><path d="M16 6v2H3.818l4.586 4.586L6.989 14l-7-7 7-7 1.415 1.414-4.586 4.584Z"/></symbol><symbol id="checkmark" viewBox="0 0 16 11.414"><path d="M0 5.414 1.414 4 6 8.586 14.586 0 16 1.414l-10 10Z"/></symbol><symbol id="chevron-down" viewBox="0 0 16 9.414"><path d="M0 1.414 1.414 0 8 6.586 14.586 0 16 1.414l-8 8Z"/></symbol><symbol id="chevron-left" viewBox="0 0 9.414 16"><path d="m0 8 8-8 1.414 1.414L2.828 8l6.586 6.586L8 16Z"/></symbol><symbol id="chevron-right" viewBox="0 0 9.414 16"><path d="M0 1.414 1.414 0l8 8-8 8L0 14.586 6.586 8Z"/></symbol><symbol id="chevron-up" viewBox="0 0 16 9.414"><path d="m0 8 8-8 8 8-1.414 1.414L8 2.828 1.414 9.414Z"/></symbol><symbol id="copy" viewBox="0 0 16 16"><path d="M0 2a2 2 0 0 1 2-2h9a2 2 0 0 1 2 2h-1a1 1 0 0 0-1-1H2a1 1 0 0 0-1 1v9a1 1 0 0 0 1 1v1a2 2 0 0 1-2-2Zm3 3a2 2 0 0 1 2-2h9a2 2 0 0 1 2 2v9a2 2 0 0 1-2 2H5a2 2 0 0 1-2-2m1 0a1 1 0 0 0 1 1h9a1 1 0 0 0 1-1V5a1 1 0 0 0-1-1H5a1 1 0 0 0-1 1Z"/></symbol><symbol id="delete" viewBox="0 0 16 16"><path d="M0 2h5.5a2 2 0 0 1 2-2h1a2 2 0 0 1 2 2H16v1h-2v11a2 2 0 0 1-2 2H4a2 2 0 0 1-2-2V3H0Zm7.5-1a1 1 0 0 0-1 1h3a1 1 0 0 0-1-1ZM3 3v11a1 1 0 0 0 1 1h8a1 1 0 0 0 1-1V3Zm2 2v8h1V5Zm2.5 0v8h1V5ZM10 5v8h1V5Z"/></symbol><symbol id="draw" viewBox="0 0 16 16"><path d="M0 4a2 2 0 0 1 2-2h7L8 3H2a1 1 0 0 0-1 1v10a1 1 0 0 0 1 1h10a1 1 0 0 0 1-1V8l1-1v7a2 2 0 0 1-2 2H2a2 2 0 0 1-2-2ZM13.583.293a1 1 0 0 1 1.414 0l.707.707a1 1 0 0 1 0 1.414l-9 9-3.121 1 1-3.121M5.29 10v.707h.707l7.414-7.414-.707-.707m.707-.707.707.707.707-.707-.707-.707Z"/></symbol><symbol id="edit" viewBox="0 0 16 16"><path d="M0 4a2 2 0 0 1 2-2h7L8 3H2a1 1 0 0 0-1 1v10a1 1 0 0 0 1 1h10a1 1 0 0 0 1-1V8l1-1v7a2 2 0 0 1-2 2H2a2 2 0 0 1-2-2ZM13.583.293a1 1 0 0 1 1.414 0l.707.707a1 1 0 0 1 0 1.414l-9 9-3.121 1 1-3.121M5.29 10v.707h.707l7.414-7.414-.707-.707m.707-.707.707.707.707-.707-.707-.707Z"/></symbol><symbol id="fast-forward" viewBox="0 0 16 16"><path d="m0 0 8 8-8 8Zm8 0 8 8-8 8Z"/></symbol><symbol id="help-circle" viewBox="0 0 16 16"><path d="M8 0a8 8 0 0 1 0 16A8 8 0 0 1 8 0m0 1a7 7 0 0 0 0 14A7 7 0 0 0 8 1m-.5 7H8a2 2 0 1 0-2-2H5a3 3 0 1 1 3.5 3v2h-1m0 1h1v1h-1Z"/></symbol><symbol id="home" viewBox="0 0 16 16"><path d="m0 8 8-8 8 8-.707.707-1-1V16H9v-6H7v6H1.707V7.707l-1 1Zm2.707-1.293V15H6V9h4v6h3.293V6.707L8 1.414Z"/></symbol><symbol id="list" viewBox="0 0 16 13"><path d="M0 0h3v3H0m0 2h3v3H0m0 2h3v3H0ZM4 .5h12v2H4m0 3h12v2H4m0 3h12v2H4"/></symbol><symbol id="pause" viewBox="0 0 16 16"><path d="M0 0h6v16H0Zm10 0h6v16h-6Z"/></symbol><symbol id="play" viewBox="0 0 13.856 16"><path d="m0 0 13.856 8L0 16Z"/></symbol><symbol id="plus" viewBox="0 0 16 16"><path d="M7 0h2v7h7v2H9v7H7V9H0V7h7Z"/></symbol><symbol id="refresh" viewBox="0 0 16 16"><path d="M0 8a8 8 0 0 1 8-8q4.2 0 7 3.293V0h1v5h-5V4h3.293Q11.707 1 8 1a7 7 0 0 0-7 7Zm16 0a8 8 0 0 1-8 8q-4.2 0-7-3.293V16H0v-5h5v1H1.707Q4.293 15 8 15a7 7 0 0 0 7-7Z"/></symbol><symbol id="rewind" viewBox="0 0 16 16"><path d="m0 8 8-8v16Zm8 0 8-8v16Z"/></symbol><symbol id="rotate-left" viewBox="0 0 16 16"><path d="M0 8a8 8 0 1 0 8-8Q3.8 0 1 3.293V0H0v5h5V4H1.707Q4.293 1 8 1a7 7 0 1 1-7 7Z"/></symbol><symbol id="search" viewBox="0 0 16 16"><path d="M9.874 10.581a6 6 0 1 1 .707-.707L16 15.293l-.707.707ZM1 6a5 5 0 0 0 10 0A5 5 0 0 0 1 6"/></symbol><symbol id="skip-backward" viewBox="0 0 10 16"><path d="M0 0h2v16H0Zm2 8 8-8v16Z"/></symbol><symbol id="skip-forward" viewBox="0 0 10 16"><path d="m0 0 8 8-8 8Zm8 0h2v16H8Z"/></symbol><symbol id="star-filled" viewBox="0 0 16 15.256"><path d="M8 0 6.125 5.824 0 5.826 4.953 9.43l-1.89 5.826 4.957-3.598 4.957 3.598-1.89-5.826L16 5.826l-6.084-.002Z"/></symbol><symbol id="star" viewBox="0 0 16 15.256"><path d="m8 0-.455 1.46-1.42 4.364L0 5.826 4.953 9.43l-1.89 5.826 4.957-3.598 4.957 3.598-1.89-5.826L16 5.826l-6.084-.002Zm0 3.23 1.17 3.592h3.78L9.911 9.047l1.166 3.596-3.058-2.22-3.057 2.218 1.164-3.594-3.055-2.223 3.778-.002Z"/></symbol><symbol id="x-mark" viewBox="0 0 16 16"><path d="M0 1.414 1.414 0 8 6.586 14.586 0 16 1.414 9.414 8 16 14.586 14.586 16 8 9.414 1.414 16 0 14.586 6.586 8Z"/></symbol></svg>